<svg xmlns="http://www.w3.org/2000/svg" viewBox="0 0 48 48" id="lungs"><circle cx="27.4" cy="27.4" r="20" fill="#c7d8f2" transform="rotate(-22.5 27.376 27.374)"></circle><path fill="#384a66" d="M29.8 11.6c-1-.6-2.2-.7-3.3-.1-.9.5-1.4 1.3-1.4 2.3v5.3l-2.5-2.3V.6h-1.5v16.1L18.6 19v-5.3c0-1-.5-1.8-1.4-2.3-1-.5-2.3-.5-3.3.1C0 20.9.6 31.5.6 31.9v8.5c0 .9.5 1.7 1.2 2.2.6.4 1.2.5 1.8.5.5 0 .9-.1 1.3-.3L17 37.1c1-.5 1.6-1.4 1.6-2.4V20.9l.1.1 3.1-2.9L25 21l.1-.1v13.9c0 1 .6 1.9 1.6 2.4l12.1 5.7c.4.2.9.3 1.3.3.6 0 1.2-.2 1.7-.5.8-.5 1.2-1.3 1.2-2.2V32c.1-.5.8-11.1-13.2-20.4zM16.4 35.8 4.3 41.5c-.5.2-1.1.2-1.6-.1-.2-.1-.6-.4-.6-.9v-8.6c0-.1-.6-10.2 12.7-19 .5-.3 1.2-.4 1.7-.1.2.1.6.4.6 1v4.7l-4.3 4.3h-2.7l-3.3 2.8 1 1.2 2.9-2.4h1.7v2.5l-3.5 2.5-.3 1.9L3.3 33l.5 1.4 4.6-1.5-.3 2 1.6.1.7-4.9 1.7-1.2 1.9 2.5 1.2-.9-1.9-2.5.7-.5v-3.7l3.2-3.2v14.2c0 .4-.3.8-.8 1zm25.2-3.9v8.5c0 .5-.3.8-.6.9-.5.3-1.1.3-1.6.1l-12.1-5.7c-.4-.2-.7-.6-.7-1V20.6l3.2 3.2v3.7l.7.5-1.9 2.4 1.2.9 1.9-2.5 1.7 1.2.7 4.9 1.5-.2-.3-2 4.6 1.5.5-1.4-5.3-1.7-.3-1.9-3.5-2.5v-2.5H33l2.9 2.4 1-1.2-3.3-2.8h-2.7l-4.3-4.3v-4.7c0-.6.4-.9.6-1 .3-.1.5-.2.8-.2.3 0 .6.1.9.3 13.3 8.9 12.7 19.1 12.7 19.2z"></path></svg>